<svg width="26" height="22" fill="none" xmlns="http://www.w3.org/2000/svg"><path d="M8.1765 21.5629c9.8113 0 15.1777-8.1286 15.1777-15.1778 0-.2309 0-.4607-.0156-.6895A10.8534 10.8534 0 0 0 26 2.9344a10.6332 10.6332 0 0 1-3.0638.8393A5.352 5.352 0 0 0 25.2814.8232a10.6872 10.6872 0 0 1-3.3873 1.2948 5.3394 5.3394 0 0 0-9.0907 4.8651A15.1455 15.1455 0 0 1 1.8096 1.4098a5.3383 5.3383 0 0 0 1.6515 7.1208A5.2873 5.2873 0 0 1 1.04 7.863v.0676a5.3363 5.3363 0 0 0 4.2796 5.2291 5.325 5.325 0 0 1-2.4086.0915 5.3414 5.3414 0 0 0 4.9836 3.7045A10.7009 10.7009 0 0 1 0 19.1668a15.1032 15.1032 0 0 0 8.1765 2.392" fill="#FAFAFA"/></svg>