<svg width="26" height="26" fill="none" xmlns="http://www.w3.org/2000/svg"><path d="M24.0807 0H1.9193A1.9193 1.9193 0 0 0 0 1.9193v22.1614A1.9196 1.9196 0 0 0 1.9193 26h22.1614c.509 0 .9972-.2022 1.3572-.5621.3599-.36.5621-.8482.5621-1.3572V1.9193A1.9194 1.9194 0 0 0 24.0807 0ZM7.7494 22.1488h-3.909V9.7319h3.909v12.4169ZM5.7922 8.0112a2.2443 2.2443 0 1 1 2.257-2.2425 2.212 2.212 0 0 1-2.257 2.2426Zm16.3656 14.1484h-3.9072v-6.7835c0-2.0005-.8505-2.618-1.9482-2.618-1.1592 0-2.2967.8738-2.2967 2.6686v6.7329h-3.909V9.741h3.7591v1.7207h.0506c.3774-.7638 1.699-2.0692 3.7158-2.0692 2.1811 0 4.5374 1.2946 4.5374 5.0863l-.0018 7.6808Z" fill="#fff"/></svg>