<svg width="26" height="26" fill="none" xmlns="http://www.w3.org/2000/svg"><g clip-path="url(#a)"><path d="M25.4818 6.7008a3.2679 3.2679 0 0 0-2.2987-2.3134c-2.0327-.5466-10.1577-.5466-10.1577-.5466s-8.125 0-10.1577.5466A3.2678 3.2678 0 0 0 .569 6.7008C.0254 8.7424.0254 13 .0254 13s0 4.2575.5436 6.2991a3.2681 3.2681 0 0 0 2.2987 2.3134c2.0327.5466 10.1577.5466 10.1577.5466s8.125 0 10.1577-.5466a3.2673 3.2673 0 0 0 2.2987-2.3134c.5436-2.0416.5436-6.2991.5436-6.2991s0-4.2575-.5436-6.299Z" fill="#FAFAFA"/><path d="M10.3672 16.8659V9.1338l6.7954 3.8661-6.7954 3.866Z" fill="#214E41"/></g><defs><clipPath id="a"><path fill="#fff" d="M0 0h26v26H0z"/></clipPath></defs></svg>