<svg width="75" height="22" fill="none" xmlns="http://www.w3.org/2000/svg"><path d="M49.3908.1903h-2.6233v21.2732h2.6233V.1903ZM56.078.1903h-2.6233v21.2732h2.6233V.1903ZM73.7314 7.1154 72.4197 9.972c-1.2041-2.0559-3.3113-3.2245-5.7841-3.2245-4.4295 0-7.4398 3.376-7.4398 7.5311 0 4.1551 3.0103 7.5311 7.4398 7.5311 2.3438 0 4.365-1.0604 5.5906-2.9215v2.5753H75V7.1155h-1.2686Zm-6.6872 13.1578c-3.1179 0-4.8381-2.5536-4.8381-5.9946 0-3.5275 1.7202-5.9946 4.8381-5.9946 2.8598 0 4.9885 2.5104 4.9885 5.9946 0 3.4843-2.1287 5.9946-4.9885 5.9946ZM23.115 8.2624c-.8386.8007-1.4837 1.7962-1.8492 2.8999l-1.3547-4.0685h-1.2686v14.348h2.7738v-5.4535c0-1.9694.215-3.6141 1.0106-4.7827.6881-.9955 1.8707-1.6014 3.3543-1.6014a7.868 7.868 0 0 1 1.4192.1298V6.9856a5.473 5.473 0 0 0-.8386-.065c-1.2041.0217-2.3652.4978-3.2468 1.3418ZM35.7368 6.7475c-4.451 0-7.6118 3.2462-7.6118 7.5311 0 4.285 3.0963 7.5311 7.5903 7.5311 1.6772.0217 3.3329-.4761 4.7305-1.4283 1.1611-.8873 1.9997-2.1424 2.3868-3.5708h-2.8598c-.4301 1.8179-1.5482 3.4843-4.064 3.4843-3.5479 0-4.6875-2.7917-4.752-5.7782v-.0433h11.9983v-.3463c.0215-4.2849-3.0103-7.3796-7.4183-7.3796Zm.0215 1.5149c3.1393 0 4.1284 2.5753 4.2145 4.6528h-8.73c.2581-2.532 1.5482-4.6528 4.5155-4.6528ZM9.461 11.0108c2.8168-.5843 4.9885-2.0992 4.9885-4.7394 0-3.2461-2.4297-4.8043-6.1711-4.8043H0v20.018h9.16c3.3758 0 6.0421-1.7313 6.0421-5.3886 0-3.0298-2.5372-4.8693-5.741-5.0857ZM7.3323 2.917c2.6878 0 4.0854 1.3634 4.0854 3.5059s-1.5266 3.8088-4.322 3.8088H3.0964V2.917h4.236Zm.3655 17.0749H3.0963v-8.0938h4.1285c2.9458 0 4.7735 1.45 4.7735 4.0685 0 2.294-1.5267 4.0253-4.3005 4.0253Z" fill="#214E41"/></svg>